<svg xmlns="http://www.w3.org/2000/svg" viewBox="0 0 792.96 134.86"><defs><style>.cls-1{fill:#23bade;}.cls-2{fill:#1a3962;}.cls-3{fill:#127dc2;}</style></defs><g id="Layer_2" data-name="Layer 2"><g id="Layer_1-2" data-name="Layer 1"><path class="cls-1" d="M145.76,116.29s0,.06,0,.08,0-.05,0-.08"/><path class="cls-1" d="M146.18,112.75c0,.14,0,.28,0,.42,0-.14,0-.28,0-.42"/><path class="cls-1" d="M89.16,23c9,20.06,19.48,49.19,26.25,70.4,4.35,13.63,4.84,24.6.12,31.85,4,.42,7.74.74,11,.91,9.37.47,17.69-5.11,19.54-16.71a39.49,39.49,0,0,0-5.52-16.28l-33.36-58c-5.65-8-11.71-11.84-18.08-12.15"/><path class="cls-1" d="M62.54,2.9l.05,0-.05,0"/><path class="cls-1" d="M64.82,1.77l.26-.11-.26.11"/><path class="cls-2" d="M.18,108.39c0-.08,0-.16,0-.24,0,.08,0,.16,0,.24"/><path class="cls-2" d="M0,111.35c0-.15,0-.29,0-.44,0,.15,0,.29,0,.44"/><path class="cls-2" d="M16,74.93c-4.12,8.94-4.38,16.17-1.48,21.94C27.34,79,47.12,55.4,62,39,71.46,28.42,80.6,22.54,89.16,23c6.37.31,12.43,4.1,18.08,12.15h0L97,17.09C88.34,2.11,76.15-3,65.08,1.66l-.26.11a24.22,24.22,0,0,0-2.23,1.1l-.05,0C57.65,5.67,53,10.37,49.18,17.12c-10.89,19-32.7,57-43.61,76-.72,1.25-1.34,2.49-1.92,3.72.58-1.22,1.19-2.44,1.91-3.69Z"/><path class="cls-2" d="M1.16,103.57c.12-.44.22-.88.37-1.33-.14.45-.25.89-.37,1.33"/><path class="cls-2" d="M2.18,100.39c.24-.66.51-1.33.79-2-.28.67-.55,1.34-.79,2"/><path class="cls-3" d="M29.42,134.79l87.24.07c16.47,0,26.86-7.35,29.09-18.49v-.08a22.54,22.54,0,0,0,.39-3.12c0-.14,0-.28,0-.42a23.83,23.83,0,0,0-.06-3.37v0c-1.85,11.6-10.17,17.18-19.54,16.71-3.31-.18-7-.49-11-.91C93.77,123,63.47,117.5,41.85,112.76c-13.82-3-23.42-8.14-27.31-15.89-2.9-5.77-2.64-13,1.48-21.94L5.56,93.16c-.72,1.25-1.33,2.47-1.91,3.69-.24.52-.46,1-.68,1.54-.28.67-.55,1.33-.79,2s-.46,1.24-.65,1.85c-.14.45-.25.89-.37,1.33a33,33,0,0,0-.94,4.58c0,.08,0,.16,0,.24-.1.86-.15,1.69-.17,2.52,0,.15,0,.29,0,.43-.15,13.82,10.62,23.42,29.42,23.45"/><path class="cls-2" d="M287.71,103a29.73,29.73,0,0,1-43.35.08,31.92,31.92,0,0,1-8.7-22.56,30.93,30.93,0,0,1,8.86-22.16,29.73,29.73,0,0,1,43.27.16,31.68,31.68,0,0,1,8.78,22.32A31.3,31.3,0,0,1,287.71,103M267.08,33.8q-19.81,0-30.61,14.82h-.33v-42a1.76,1.76,0,0,0-1.76-1.76H221.15a1.76,1.76,0,0,0-1.76,1.76V123.72a1.76,1.76,0,0,0,1.76,1.77H234a2,2,0,0,0,2-2V112.59h.33a36.36,36.36,0,0,0,18.44,13.14,41.19,41.19,0,0,0,13.72,2,43.49,43.49,0,0,0,31.65-13.68q13.22-13.69,13.21-33.2A45.91,45.91,0,0,0,299.8,47.74,43.92,43.92,0,0,0,267.08,33.8"/><path class="cls-2" d="M386.81,103.25a29.79,29.79,0,0,1-22.08,9.18,28.64,28.64,0,0,1-21.59-9.34A31,31,0,0,1,334.28,81a31.74,31.74,0,0,1,8.78-22.56,28.72,28.72,0,0,1,21.83-9.34q13.55,0,22.24,9.18T395.83,81a30.59,30.59,0,0,1-9,22.24m8.7-54.47h-.32a30.7,30.7,0,0,0-12.89-11.2,40.52,40.52,0,0,0-17.41-3.78q-20.29,0-33.84,13.53T317.52,81.17q0,20.14,13.62,33.36t33.75,13.21a38.61,38.61,0,0,0,17.65-4.11,29.72,29.72,0,0,0,12.65-12h.32v11.84a2,2,0,0,0,2,2h12.73a2,2,0,0,0,2-2V38.23a2,2,0,0,0-2-2H397.53a2,2,0,0,0-2,2Z"/><path class="cls-2" d="M467.7,33.8q-17.08,0-26.1,11.92h-.33V38.23a2,2,0,0,0-2-2h-11.6a2,2,0,0,0-2,2v85.24a2,2,0,0,0,2,2h12.73a2,2,0,0,0,2-2V76.82q0-12.09,5.88-19.9t17.65-7.81q22.23,0,22.24,27.87v46.49a2,2,0,0,0,2,2h12.73a2,2,0,0,0,2-2V72.63q0-14.17-5.64-22.88-10.16-16-31.59-16"/><path class="cls-2" d="M590.51,36.21H575.45a3.05,3.05,0,0,0-2.29,1L537,79.24l40.21,45.23a3,3,0,0,0,2.25,1h16.19a1.51,1.51,0,0,0,1.12-2.53L556.38,78.27l35.26-39.54a1.51,1.51,0,0,0-1.13-2.52"/><path class="cls-2" d="M521.93,125.49h12.73a2,2,0,0,0,2-2V6.91a2,2,0,0,0-2-2H521.93a2,2,0,0,0-2,2V123.47a2,2,0,0,0,2,2"/><path class="cls-2" d="M660.92,103.25a29.77,29.77,0,0,1-22.08,9.18,28.64,28.64,0,0,1-21.59-9.34A31,31,0,0,1,608.39,81a31.74,31.74,0,0,1,8.78-22.56A28.74,28.74,0,0,1,639,49.11q13.53,0,22.23,9.18T670,81a30.56,30.56,0,0,1-9,22.24m8.7-54.47h-.32a30.7,30.7,0,0,0-12.89-11.2A40.44,40.44,0,0,0,639,33.8q-20.31,0-33.84,13.53T591.63,81.17q0,20.14,13.62,33.36T639,127.74a38.57,38.57,0,0,0,17.64-4.11,29.72,29.72,0,0,0,12.65-12h.32v11.84a2,2,0,0,0,2,2h12.73a2,2,0,0,0,2-2V38.23a2,2,0,0,0-2-2H671.64a2,2,0,0,0-2,2Z"/><path class="cls-2" d="M715.87,46.52h-.32V38.23a2,2,0,0,0-2-2h-11.6a2,2,0,0,0-2,2v85.24a2,2,0,0,0,2,2h12.73a2,2,0,0,0,2-2V80.55c0-25.52,13.49-28.62,22.3-29.23a1.5,1.5,0,0,0,1.39-1.5V35.47a1,1,0,0,0-1.07-1c-10,.62-18.87,5.64-23.43,12.07"/><path class="cls-2" d="M778.29,34.91v-28a2,2,0,0,0-2-2H763.55a2,2,0,0,0-2,2v28H749.79a1,1,0,0,0-1,1V50a1,1,0,0,0,1,1h11.74v72.52a2,2,0,0,0,2,2h12.73a2,2,0,0,0,2-2V51H792a1,1,0,0,0,1-1v-14a1,1,0,0,0-1-1Z"/></g></g></svg>